<?xml version="1.0" encoding="UTF-8"?>
<svg id="Layer_2" data-name="Layer 2" xmlns="http://www.w3.org/2000/svg" viewBox="0 0 230.91 209.51">
  <defs>
    <style>
      .cls-1 {
        fill: #fff;
      }

      .cls-2 {
        fill: none;
      }
    </style>
  </defs>
  <g id="Logo_4" data-name="Logo 4">
    <g id="Background">
      <g>
        <g>
          <path class="cls-1" d="M112,104.09c1.02.95,2.02,1.88,3,2.81v-60.5c-.95.89-1.96,1.85-3,2.86v54.83Z"/>
          <path class="cls-1" d="M103,58.34c-2.24,2.37-4.07,4.42-5,5.67-8.87,11.92-3.38,22.15,5,31.25v-36.92Z"/>
          <path class="cls-1" d="M109,52.2c-1.01,1.01-2.02,2.02-3,3.02v43.15c.99.98,1.99,1.95,3,2.91v-49.08Z"/>
          <path class="cls-1" d="M118.66,43.09h0c-.21.17-.44.38-.66.58v66.14c1.08,1.08,2.09,2.15,3,3.21l2,2.49V39.01l-4.34,4.08Z"/>
          <path class="cls-1" d="M112.58,122.95c-18.92-17.57-47.94-38.72-30.55-61.91,7.24-9.66,19.09-18.8,28.87-28.17l-.02.03,12.12-11.38V0l-2,2-50.41,50.6c-11.36,14.94-10.37,36.86,1.9,50.93l48.51,48.5,2,2v-21.51l-10.43-9.57h.01Z"/>
          <path class="cls-1" d="M162.51,60.5l-39.51-38.99v17.5c0,1.66,20.38,19.55,23.41,23.59,4.66,6.2,6.86,11.91,4.9,19.73-1.77,7.06-18.34,22.82-24.82,29.27h0s-.49.47-.49.47l-3,3.45v17l40.44-40.06c6.37-9.61,6.83-22.99-.93-31.95Z"/>
        </g>
        <g>
          <rect class="cls-2" y="154.51" width="230.91" height="55"/>
          <path class="cls-1" d="M44.78,170.31l-10.8,25.2h-10.37l-10.87-25.2h7.2l7.81,19.55h2.05l7.78-19.55h7.2Z"/>
          <path class="cls-1" d="M50.04,183.78v-13.46h6.91v13.97c0,2.66.5,4.82,2.16,5.65h11.73c1.66-.83,2.2-2.84,2.2-5.36v-14.25h6.91v12.89c0,7.85-.79,12.56-14.76,12.56s-15.15-4.46-15.15-11.99Z"/>
          <path class="cls-1" d="M115.88,188.92c0,4.97-5.33,6.59-13.03,6.59h-13.93v-25.2h12.6c8.03,0,13.07.86,13.07,6.01,0,3.2-2.12,4.93-6.34,5.72v.36c5.9.65,7.63,2.59,7.63,6.52ZM95.83,175.03v5.18h9.14c2.05-.4,2.7-1.4,2.7-2.81,0-1.08-.5-2.05-1.3-2.38h-10.55ZM108.83,187.91c0-1.01-.4-2.41-2.12-2.99h-10.87v5.87h10.26c1.84-.36,2.74-1.69,2.74-2.88Z"/>
          <path class="cls-1" d="M150.41,188.92c0,4.97-5.33,6.59-13.03,6.59h-13.93v-25.2h12.6c8.03,0,13.07.86,13.07,6.01,0,3.2-2.12,4.93-6.34,5.72v.36c5.9.65,7.63,2.59,7.63,6.52ZM130.36,175.03v5.18h9.14c2.05-.4,2.7-1.4,2.7-2.81,0-1.08-.5-2.05-1.3-2.38h-10.55ZM143.35,187.91c0-1.01-.4-2.41-2.12-2.99h-10.87v5.87h10.26c1.84-.36,2.74-1.69,2.74-2.88Z"/>
          <path class="cls-1" d="M181.62,189.86v5.65h-23.65v-25.2h23.22v5.65h-16.31v3.82h15.73v5.69h-15.73v4.39h16.74Z"/>
          <path class="cls-1" d="M202.43,185.61h-6.59v9.9h-6.91v-25.2h13.39c6.8,0,13.03.97,13.03,6.77,0,4.25-2.7,6.19-7.13,6.91l9.93,11.52h-8.06l-7.67-9.9ZM195.84,180.9h9.5c1.98-.43,3.06-1.55,3.06-3.13s-1.12-2.34-2.34-2.74h-10.22v5.87Z"/>
        </g>
      </g>
    </g>
  </g>
</svg>